# xmcd
#
# Track frame offsets:
#	150
#	47831
#	87469
#	148066
#	183976
#	243260
#
# Disc length: 4186 seconds
#
# Revision: 1
# Processed by: cddbd v1.5.2PL0 Copyright (c) Steve Scherf et al.
# Submitted via: audiograbber 1.83.01
#
DISCID=4f105806
DTITLE=Grateful Dead - 94-03-27 Nassau Veterans Memorial Coliseum, Uniondale NY
DYEAR=1900
DGENRE=
TTITLE0=Samson and Delilah
TTITLE1=Stage Talk
TTITLE2=Iko Iko
TTITLE3=Playing In The Band
TTITLE4=Uncle John's Band
TTITLE5=Drums
EXTD=
EXTT0=
EXTT1=
EXTT2=
EXTT3=
EXTT4=
EXTT5=
PLAYORDER=
